<?xml version="1.0" standalone="no"?>
<!DOCTYPE svg PUBLIC "-//W3C//DTD SVG 20010904//EN"
 "http://www.w3.org/TR/2001/REC-SVG-20010904/DTD/svg10.dtd">
<svg version="1.0" xmlns="http://www.w3.org/2000/svg"
 width="403.000000pt" height="403.000000pt" viewBox="0 0 403.000000 403.000000"
 preserveAspectRatio="xMidYMid meet">
<metadata>
Created by potrace 1.11, written by Peter Selinger 2001-2013
</metadata>
<g transform="translate(0.000000,403.000000) scale(0.100000,-0.100000)"
fill="#000000" stroke="none">
<path d="M3258 3305 c-2 -1 -26 -5 -55 -8 -285 -30 -683 -259 -963 -554 -89
-93 -297 -363 -361 -468 -51 -84 -111 -206 -153 -310 -20 -48 -43 -99 -51
-112 -10 -15 -69 -49 -153 -90 -75 -36 -301 -146 -502 -245 -413 -203 -434
-213 -456 -204 -24 9 -12 54 47 171 64 126 120 212 223 345 214 277 437 509
621 645 241 178 562 344 717 370 51 9 128 51 181 99 63 57 186 146 289 207
103 62 121 83 100 117 -13 19 -46 24 -199 27 -251 5 -541 -62 -841 -194 -171
-75 -391 -212 -542 -335 -181 -148 -433 -405 -606 -616 -16 -19 -31 -37 -35
-40 -21 -18 -177 -234 -233 -324 -112 -178 -219 -424 -243 -556 -2 -14 -8 -43
-13 -65 -12 -51 -5 -248 10 -298 28 -94 104 -134 233 -124 82 7 86 8 212 67
149 69 226 105 310 145 44 20 121 56 170 80 50 24 119 57 155 73 36 17 118 55
184 86 125 59 153 66 163 40 3 -9 -16 -77 -42 -152 -26 -76 -57 -174 -68 -219
-19 -76 -20 -83 -4 -106 l16 -25 203 0 c112 0 210 4 220 9 9 5 31 50 49 101
38 107 57 130 97 123 16 -2 89 -31 163 -63 74 -33 195 -84 269 -115 l135 -56
429 2 c396 2 430 3 440 20 8 12 8 22 0 35 -12 18 -31 27 -574 249 -201 83
-456 187 -567 233 -141 58 -203 88 -203 98 0 20 47 172 58 189 8 13 194 104
547 268 72 33 169 79 380 180 386 183 607 307 745 418 172 138 237 239 246
387 8 125 -47 244 -159 346 -81 74 -170 116 -285 135 -59 10 -296 21 -304 14z
m310 -89 c149 -31 275 -123 331 -239 68 -142 43 -275 -76 -403 -81 -88 -236
-196 -413 -291 -131 -70 -643 -323 -655 -323 -1 0 -72 -33 -156 -73 -85 -40
-188 -89 -229 -107 -182 -83 -330 -162 -341 -182 -24 -45 -69 -194 -69 -228 0
-22 8 -46 19 -59 11 -13 84 -49 163 -81 356 -144 985 -403 1008 -415 20 -11
-31 -13 -310 -11 l-335 2 -110 46 c-60 26 -179 76 -264 113 -175 75 -205 82
-254 61 -43 -18 -58 -40 -93 -136 -14 -41 -31 -78 -36 -81 -14 -9 -327 -9
-332 0 -3 4 24 93 60 197 73 214 77 252 27 291 -46 37 -85 30 -234 -40 -74
-35 -161 -76 -194 -92 -33 -15 -106 -49 -161 -76 -56 -26 -209 -98 -340 -160
l-239 -113 -86 0 c-96 -1 -113 7 -137 64 -8 19 -16 77 -19 130 -5 99 8 175 58
342 26 86 141 317 210 423 47 72 194 272 209 285 3 3 28 32 55 65 28 33 52 62
55 65 3 3 43 48 90 100 132 147 302 311 435 421 303 248 706 433 1080 496 92
15 325 26 325 14 0 -3 -28 -24 -63 -46 -86 -55 -198 -138 -244 -180 -41 -39
-103 -75 -127 -75 -35 0 -211 -64 -307 -111 -273 -134 -512 -302 -707 -497
-135 -135 -162 -165 -284 -313 -179 -221 -253 -329 -337 -494 -47 -92 -56
-119 -56 -163 0 -47 4 -57 28 -78 34 -29 70 -30 134 -5 26 11 217 102 423 204
206 101 431 211 500 244 69 33 135 71 148 85 12 14 42 73 67 131 89 218 147
315 320 547 113 152 292 340 404 425 214 163 464 290 630 322 122 23 319 23
429 -1z"/>
<path d="M3275 2928 c-142 -30 -443 -199 -625 -352 -217 -182 -309 -291 -294
-350 17 -68 71 -65 249 14 318 141 493 232 665 346 210 139 263 227 186 308
-18 20 -44 37 -57 37 -13 1 -37 2 -54 3 -16 1 -48 -2 -70 -6z m130 -78 c25
-21 17 -45 -32 -95 -95 -95 -335 -240 -588 -355 -410 -188 -414 -188 -270 -45
151 150 229 215 355 296 270 173 474 249 535 199z"/>
</g>
</svg>
