<svg width="110" height="71" viewBox="0 0 110 71" fill="none" xmlns="http://www.w3.org/2000/svg">
<mask id="path-1-inside-1" fill="white">
<path d="M12.0732 69.1021L10.434 69.8139C9.81655 70.0818 9.16059 70.2508 8.49036 70.3147L7.38828 70.4194C6.4552 70.5083 5.51407 70.456 4.5966 70.2645L4.32864 70.2086C3.01598 69.9347 1.91794 69.0421 1.38325 67.8139C1.20697 67.4091 1.08011 66.9844 1.00541 66.5493L0.701907 64.7812C0.532601 63.795 0.475195 62.7927 0.530777 61.7936L0.594751 60.6437C0.645288 59.7353 0.778713 58.8332 0.993362 57.9491L1.56502 55.5943L2.90649 51.2405L5.81299 45.2122L8.04877 41.4166L10.1728 38.2908L13.191 34.2719L15.9858 30.9229L19.1158 27.3505L22.5813 23.555L26.1585 20.0943L29.8475 16.6336L33.9837 13.2845L36.4431 11.61L38.9024 10.0471L41.4736 8.48419L44.1565 7.03294L49.7459 4.57696L55.4471 2.67916L59.9187 1.56281L64.502 0.781362L69.0854 0.558091L72.143 0.72314C72.86 0.76185 73.5712 0.874506 74.2652 1.0593L74.5525 1.13582C74.766 1.19264 74.9317 1.36067 74.9851 1.5746C75.1358 2.17628 74.9107 2.80951 74.4139 3.18161L73.8923 3.57224L71.8801 4.6886L69.1971 6.47476L67.7439 7.47948L65.061 9.48891L63.3186 11.0549C62.99 11.3502 62.6405 11.6212 62.273 11.866C61.7509 12.2136 61.1716 12.4666 60.5617 12.6137L58.2419 13.1729L54.3293 14.4874L48.8516 17.1667L42.3679 21.099L37.1138 25.0062L32.7541 29.0251L28.6179 33.4905L24.7053 38.1792L22.0223 41.6399L20.5691 43.5377L19.2276 45.5471L17.998 47.5565L16.9919 49.4543L15.5386 52.3568L15.0915 53.4732L15.0153 53.8155C14.9269 54.2124 15.0987 54.6219 15.444 54.8376C15.6433 54.962 15.891 54.9809 16.107 54.8885L18.1097 54.0314L27.2764 49.4543L35.3252 45.5471L44.8272 40.97C45.4101 40.6063 45.8707 40.0767 46.1499 39.4496L46.1687 39.4072L47.3984 36.2814L48.7398 33.2672L50.3049 30.2531L52.0935 27.2389L57.9065 19.4244L58.7961 18.3657C63.5977 12.6511 69.465 7.92229 76.0724 4.44193L76.2398 4.35369L80.935 2.12098L82.2333 1.73681C87.3313 0.228397 92.7152 -0.0479542 97.9411 0.930556L98.9329 1.11627L99.9379 1.45082C103.393 2.601 106.3 4.98693 108.1 8.14929C110.316 12.1732 109.783 17.1504 106.766 20.6159L105.081 22.5502L100.498 26.2342L95.3557 29.36L86.6362 33.8254L77.8049 38.0675L59.6951 46.5518L57.4654 47.7135C57.2434 47.8291 57.0636 48.0118 56.9518 48.2355C56.8432 48.4523 56.7508 48.6771 56.6759 48.9078L55.4724 52.6058C55.3823 52.8824 55.3604 53.1765 55.4082 53.4631C55.4326 53.6087 55.5285 53.7326 55.6636 53.7925L56.4532 54.143L91.5696 68.5384C92.1804 68.7887 92.4751 69.4839 92.2299 70.0961C92.0924 70.4397 91.759 70.665 91.3885 70.665H68.3028L60.813 67.5392L53.9789 64.5851C53.5449 64.3978 53.0819 64.2868 52.6099 64.2574C51.973 64.2176 51.3863 64.6032 51.1708 65.2031L49.5827 69.627C49.4707 69.9394 49.2657 70.2102 48.9954 70.4031C48.7564 70.5735 48.4702 70.665 48.1766 70.665H37.8257C37.6535 70.665 37.4861 70.6105 37.3468 70.5096C36.7344 70.0646 36.4576 69.2903 36.6494 68.5589L37.561 65.0833L40.1448 57.7394C40.3221 57.2353 40.0516 56.6838 39.5439 56.5148C39.2756 56.4255 38.9834 56.4427 38.7274 56.563L12.0732 69.1021Z"/>
</mask>
<path d="M12.0732 69.1021L10.434 69.8139C9.81655 70.0818 9.16059 70.2508 8.49036 70.3147L7.38828 70.4194C6.4552 70.5083 5.51407 70.456 4.5966 70.2645L4.32864 70.2086C3.01598 69.9347 1.91794 69.0421 1.38325 67.8139C1.20697 67.4091 1.08011 66.9844 1.00541 66.5493L0.701907 64.7812C0.532601 63.795 0.475195 62.7927 0.530777 61.7936L0.594751 60.6437C0.645288 59.7353 0.778713 58.8332 0.993362 57.9491L1.56502 55.5943L2.90649 51.2405L5.81299 45.2122L8.04877 41.4166L10.1728 38.2908L13.191 34.2719L15.9858 30.9229L19.1158 27.3505L22.5813 23.555L26.1585 20.0943L29.8475 16.6336L33.9837 13.2845L36.4431 11.61L38.9024 10.0471L41.4736 8.48419L44.1565 7.03294L49.7459 4.57696L55.4471 2.67916L59.9187 1.56281L64.502 0.781362L69.0854 0.558091L72.143 0.72314C72.86 0.76185 73.5712 0.874506 74.2652 1.0593L74.5525 1.13582C74.766 1.19264 74.9317 1.36067 74.9851 1.5746C75.1358 2.17628 74.9107 2.80951 74.4139 3.18161L73.8923 3.57224L71.8801 4.6886L69.1971 6.47476L67.7439 7.47948L65.061 9.48891L63.3186 11.0549C62.99 11.3502 62.6405 11.6212 62.273 11.866C61.7509 12.2136 61.1716 12.4666 60.5617 12.6137L58.2419 13.1729L54.3293 14.4874L48.8516 17.1667L42.3679 21.099L37.1138 25.0062L32.7541 29.0251L28.6179 33.4905L24.7053 38.1792L22.0223 41.6399L20.5691 43.5377L19.2276 45.5471L17.998 47.5565L16.9919 49.4543L15.5386 52.3568L15.0915 53.4732L15.0153 53.8155C14.9269 54.2124 15.0987 54.6219 15.444 54.8376C15.6433 54.962 15.891 54.9809 16.107 54.8885L18.1097 54.0314L27.2764 49.4543L35.3252 45.5471L44.8272 40.97C45.4101 40.6063 45.8707 40.0767 46.1499 39.4496L46.1687 39.4072L47.3984 36.2814L48.7398 33.2672L50.3049 30.2531L52.0935 27.2389L57.9065 19.4244L58.7961 18.3657C63.5977 12.6511 69.465 7.92229 76.0724 4.44193L76.2398 4.35369L80.935 2.12098L82.2333 1.73681C87.3313 0.228397 92.7152 -0.0479542 97.9411 0.930556L98.9329 1.11627L99.9379 1.45082C103.393 2.601 106.3 4.98693 108.1 8.14929C110.316 12.1732 109.783 17.1504 106.766 20.6159L105.081 22.5502L100.498 26.2342L95.3557 29.36L86.6362 33.8254L77.8049 38.0675L59.6951 46.5518L57.4654 47.7135C57.2434 47.8291 57.0636 48.0118 56.9518 48.2355C56.8432 48.4523 56.7508 48.6771 56.6759 48.9078L55.4724 52.6058C55.3823 52.8824 55.3604 53.1765 55.4082 53.4631C55.4326 53.6087 55.5285 53.7326 55.6636 53.7925L56.4532 54.143L91.5696 68.5384C92.1804 68.7887 92.4751 69.4839 92.2299 70.0961C92.0924 70.4397 91.759 70.665 91.3885 70.665H68.3028L60.813 67.5392L53.9789 64.5851C53.5449 64.3978 53.0819 64.2868 52.6099 64.2574C51.973 64.2176 51.3863 64.6032 51.1708 65.2031L49.5827 69.627C49.4707 69.9394 49.2657 70.2102 48.9954 70.4031C48.7564 70.5735 48.4702 70.665 48.1766 70.665H37.8257C37.6535 70.665 37.4861 70.6105 37.3468 70.5096C36.7344 70.0646 36.4576 69.2903 36.6494 68.5589L37.561 65.0833L40.1448 57.7394C40.3221 57.2353 40.0516 56.6838 39.5439 56.5148C39.2756 56.4255 38.9834 56.4427 38.7274 56.563L12.0732 69.1021Z" stroke="#5296F0" stroke-width="4" mask="url(#path-1-inside-1)"/>
<path d="M65.505 28.3606L65.3666 28.5908C65.241 28.8 65.1873 29.0447 65.2144 29.2874L65.2492 29.6004C65.2718 29.8038 65.3744 29.99 65.5345 30.1178C65.7328 30.2763 65.9848 30.352 66.2377 30.329L67.0732 30.2531L73.7805 27.2389L80.0407 24.3364L83.3943 22.5502L86.6362 20.6524L88.872 19.2012L91.1078 17.6383L92.6728 16.2987L93.3963 15.5761C93.8023 15.1708 94.1037 14.6732 94.2749 14.1261C94.4605 13.5331 94.3273 12.8863 93.9224 12.4146L93.8459 12.3255C93.4517 11.8663 92.8955 11.5764 92.2927 11.5162L91.7268 11.4597C91.2421 11.4113 90.7529 11.4329 90.2745 11.5239L89.295 11.7103C88.865 11.7921 88.4445 11.9171 88.0398 12.0835L84.8476 13.3961L80.376 15.8521L77.6931 17.5266L75.2338 19.2012L72.998 20.9873L71.2094 22.5502L68.4146 25.1178L66.2987 27.3226C65.9962 27.6379 65.7299 27.986 65.505 28.3606Z" stroke="#5296F0" stroke-width="2"/>
</svg>
