<svg width="402" height="549" viewBox="0 0 402 549" fill="none" xmlns="http://www.w3.org/2000/svg">
<g filter="url(#filter0_dd)">
<path d="M81.824 205.521L99.839 225.604L97.7603 195.825L104.689 171.587L107.461 148.734V130.729L115.775 110.645L134.483 97.4875L162.891 92.6399H187.835C194.764 94.4866 208.76 98.3186 209.315 98.8726C210.007 99.5651 226.637 106.49 226.637 107.183C226.637 107.875 241.88 103.028 242.573 102.335C243.127 101.781 248.809 96.5642 251.581 94.0249C255.045 94.7175 262.251 96.1025 263.36 96.1025C264.468 96.1025 276.293 99.3343 282.067 100.95C285.07 104.874 291.075 112.861 291.075 113.416C291.075 113.97 295.232 122.418 297.311 126.573C298.697 133.499 301.468 147.488 301.468 148.042C301.468 148.734 303.547 163.277 303.547 165.355V244.994C303.547 246.102 302.623 260.692 302.161 267.848M302.161 267.848V287.931L294.539 301.089L282.067 326.712M302.161 267.848L314.633 255.382L318.097 242.224L317.405 222.834L318.097 205.521L325.719 192.363V185.438L318.79 179.205L321.562 163.97V141.116L325.719 130.036L324.333 115.493L318.79 104.413L317.405 89.8698L316.712 72.5568L308.397 64.2465L301.468 51.7812L292.461 42.7784L284.839 40.7008L272.367 42.7784L253.659 40.7008L237.03 33.7756L221.787 26.1579L210.007 17.8476L191.993 13L176.749 14.385L168.434 20.6177L164.277 26.1579L145.569 35.1607L130.326 45.5485L103.996 55.9363L89.4457 71.8643L81.824 82.2521L67.2734 85.0222L63.809 90.5623L79.7453 87.7922V101.643L70.0449 110.645L67.2734 125.188L66.5805 144.579L72.8165 160.507L73.5094 175.742V186.823L82.5169 206.213L72.8165 200.673L67.9663 208.291V226.296L73.5094 238.069V251.92L72.8165 259.537L81.824 272.003L94.2959 278.928H106.768L115.082 294.163M196.15 229.759L185.064 242.917V253.997C185.064 254.551 191.069 256.998 194.071 258.152L197.536 253.305L203.772 251.92L210.007 253.997L211.393 258.152L217.629 262.307L221.094 259.537L225.944 257.46L228.715 251.227L234.951 249.842L238.416 253.305L240.494 256.075L246.73 251.92L250.888 247.765L232.18 223.526M115.082 294.163L134.483 324.634L155.963 344.025L178.135 358.568L214.165 360.645L241.88 357.875L259.895 345.41L282.067 326.712M115.082 294.163L116.468 318.402V350.258L113.004 375.881L135.869 407.737L153.884 428.512L171.206 446.518M282.067 326.712L283.453 391.809L278.603 398.734L279.989 414.662L270.288 442.363L261.281 456.213L243.959 471.449L232.18 480.452L228.715 489.454L223.865 498.457L221.787 494.302L219.015 489.454L214.858 483.222L209.315 478.374L203.772 476.296L201 470.064L193.378 462.446L182.985 454.136L171.206 446.518M171.206 446.518L150.419 470.064L142.105 500.535L139.333 513L107.461 458.291L90.1386 425.05L79.7453 395.964M117.161 346.103L104.689 350.258L95.6816 362.723C93.1411 366.647 88.0599 374.634 88.0599 375.188C88.0599 375.742 83.4407 384.191 81.1311 388.346L79.0524 395.964L63.809 402.889L16 426.435M386 421.587L311.861 393.886L284.146 391.809M246.73 471.449L266.824 459.676L280.682 448.596L295.925 476.296L316.712 495.687L329.184 508.152L341.655 479.066L333.341 437.515L322.948 404.967L311.169 393.886M167.742 285.853L194.071 301.781L225.944 303.166L239.801 297.626L252.273 291.393L259.202 282.391H240.494L225.251 283.776L220.401 285.853L214.165 283.776H198.228C193.609 283.776 184.232 283.914 183.678 284.468C183.124 285.022 172.823 285.622 167.742 285.853ZM194.071 179.205L187.142 167.432H155.27L136.562 169.51L126.861 178.512L123.397 192.363L138.64 180.59L155.27 175.742L194.071 179.205ZM137.948 205.521L151.112 197.903L161.506 194.44L176.749 195.133L185.064 201.366L165.663 204.828L147.648 205.521H137.948ZM237.723 198.596L248.809 190.285H261.281L270.981 194.44L279.296 198.596L264.745 199.288H252.273L237.723 198.596ZM237.723 175.742L239.109 167.432L257.816 163.97L274.446 163.277L290.382 169.51H272.367L252.966 172.28L237.723 175.742Z" stroke="#9DD0FF" stroke-width="7"/>
</g>
<defs>
<filter id="filter0_dd" x="0.453613" y="0.457764" width="400.771" height="548.029" filterUnits="userSpaceOnUse" color-interpolation-filters="sRGB">
<feFlood flood-opacity="0" result="BackgroundImageFix"/>
<feColorMatrix in="SourceAlpha" type="matrix" values="0 0 0 0 0 0 0 0 0 0 0 0 0 0 0 0 0 0 127 0"/>
<feOffset dy="12"/>
<feGaussianBlur stdDeviation="7"/>
<feColorMatrix type="matrix" values="0 0 0 0 0.196078 0 0 0 0 0.196078 0 0 0 0 0.196078 0 0 0 0.39 0"/>
<feBlend mode="normal" in2="BackgroundImageFix" result="effect1_dropShadow"/>
<feColorMatrix in="SourceAlpha" type="matrix" values="0 0 0 0 0 0 0 0 0 0 0 0 0 0 0 0 0 0 127 0"/>
<feOffset/>
<feGaussianBlur stdDeviation="4.5"/>
<feColorMatrix type="matrix" values="0 0 0 0 0.52549 0 0 0 0 0.8 0 0 0 0 1 0 0 0 0.73 0"/>
<feBlend mode="normal" in2="effect1_dropShadow" result="effect2_dropShadow"/>
<feBlend mode="normal" in="SourceGraphic" in2="effect2_dropShadow" result="shape"/>
</filter>
</defs>
</svg>
