<svg width="401" height="542" viewBox="0 0 401 542" fill="none" xmlns="http://www.w3.org/2000/svg">
<g filter="url(#filter0_dddddddd)">
<path d="M114.808 337.154L112.324 359.511L112.323 359.513C112.179 360.808 112.107 361.456 112.076 362.089C111.867 366.238 112.893 370.356 115.025 373.921C115.35 374.465 115.718 375.004 116.453 376.081L122.734 385.279C123.914 387.007 124.504 387.87 125.105 388.726C129.014 394.294 133.27 399.611 137.848 404.644C138.551 405.417 139.265 406.182 140.692 407.712L150.403 418.117L168.55 438.357M114.808 337.154V282.015M114.808 337.154L106.532 340.832C105.916 341.105 105.608 341.242 105.311 341.391C103.37 342.367 101.683 343.781 100.383 345.521C100.184 345.787 99.9942 346.068 99.6156 346.628L89.8905 361.021C89.1516 362.115 88.7822 362.661 88.4264 363.214C86.108 366.816 84.1886 370.66 82.7024 374.677C82.4743 375.293 82.2592 375.917 81.829 377.165L77.816 388.802M168.55 438.357L177.877 444.186L177.882 444.189C178.604 444.641 178.966 444.867 179.325 445.096C183.276 447.616 187.028 450.435 190.549 453.527C190.868 453.807 191.185 454.091 191.815 454.655L197.9 460.099C198.338 460.491 198.704 460.957 198.981 461.476L201.679 466.535C203.241 469.464 206.033 471.538 209.287 472.189C210.459 472.424 211.479 473.138 212.099 474.16L221.848 490.217C222.329 491.01 223.504 490.933 223.878 490.083L227.378 482.128C227.854 481.047 228.092 480.507 228.347 479.981C230.009 476.548 232.272 473.441 235.028 470.805C235.45 470.401 235.891 470.008 236.774 469.224L249.513 457.9L260.681 450.223M168.55 438.357L144.82 478.141L136.444 509.549L118.995 474.651L97.3588 443.243L86.9527 423.788C86.135 422.259 85.7261 421.495 85.3428 420.724C82.8428 415.697 81.0861 410.333 80.1274 404.801C79.9804 403.953 79.8578 403.095 79.6127 401.379L77.816 388.802M260.681 450.223L268.141 435.74C268.781 434.499 269.1 433.879 269.408 433.254C271.411 429.186 273.051 424.95 274.309 420.594C274.502 419.925 274.683 419.251 275.046 417.903L277.691 408.08C278.362 405.588 278.697 404.342 279.004 403.094C281 394.959 282.101 386.631 282.288 378.257C282.317 376.972 282.317 375.681 282.317 373.101V346.227M260.681 450.223L269.009 447.307L269.013 447.306C269.826 447.022 270.233 446.879 270.642 446.749C273.309 445.9 276.082 445.429 278.88 445.349C279.309 445.337 279.741 445.337 280.605 445.337H283.811C284.093 445.337 284.233 445.337 284.365 445.348C285.233 445.425 286.025 445.875 286.535 446.582C286.612 446.689 286.684 446.81 286.828 447.052L299.263 467.944C299.842 468.916 300.131 469.402 300.432 469.877C302.391 472.976 304.747 475.805 307.44 478.292C307.853 478.674 308.279 479.046 309.13 479.791L334.817 502.267C335.054 502.475 335.173 502.578 335.257 502.627C335.851 502.97 336.606 502.628 336.739 501.955C336.758 501.859 336.758 501.702 336.758 501.387V498.404C336.758 496.984 336.758 496.273 336.743 495.565C336.647 490.954 336.082 486.363 335.057 481.866C334.899 481.176 334.727 480.487 334.383 479.11L334.382 479.108L324.195 438.357L317.64 407.374C317.478 406.604 317.396 406.219 317.306 405.838C316.717 403.355 315.832 400.951 314.672 398.677C314.494 398.329 314.307 397.984 313.934 397.295L313.932 397.291L307.444 385.313M282.317 346.227V319.007M282.317 346.227L307.444 385.313M282.317 319.007L292.968 298.958C293.144 298.626 293.233 298.46 293.318 298.293C293.874 297.206 294.346 296.078 294.73 294.919C294.789 294.741 294.846 294.561 294.958 294.203L300.546 276.424C300.737 275.817 300.832 275.513 300.924 275.209C301.519 273.227 301.991 271.211 302.336 269.171C302.389 268.858 302.438 268.543 302.536 267.915L304.355 256.276C304.985 252.241 307.374 248.695 310.875 246.594C313.966 244.74 315.93 241.469 316.114 237.87L317.215 216.407L318.537 204.508L318.538 204.504C318.649 203.5 318.705 202.997 318.772 202.497C319.21 199.238 320.012 196.038 321.163 192.958C321.34 192.485 321.528 192.015 321.904 191.074L324.385 184.872C324.652 184.206 324.785 183.871 324.879 183.552C325.5 181.436 325.087 179.151 323.765 177.385C323.566 177.119 323.324 176.853 322.841 176.321L319.309 172.436M282.317 319.007L275.553 328.206C274.018 330.294 273.25 331.338 272.446 332.316C267.182 338.721 260.318 343.62 252.55 346.515C251.363 346.958 250.126 347.344 247.653 348.117L242.615 349.692C240.984 350.201 240.169 350.456 239.352 350.688C234.025 352.203 228.529 353.042 222.993 353.185C222.144 353.207 221.29 353.207 219.582 353.207H202.69C199.681 353.207 198.177 353.207 196.699 353.138C187.039 352.691 177.605 350.061 169.107 345.445C167.807 344.739 166.52 343.961 163.945 342.404L157.903 338.75C157.017 338.215 156.575 337.947 156.14 337.671C153.305 335.871 150.672 333.773 148.285 331.412C147.919 331.05 147.559 330.678 146.84 329.935L142.769 325.729L142.768 325.727C141.043 323.945 140.18 323.053 139.344 322.144C133.894 316.221 129.194 309.648 125.351 302.575C124.762 301.49 124.197 300.385 123.067 298.175L114.808 282.015M319.309 172.436L312.596 181.387C312.395 181.655 312.294 181.789 312.22 181.855C311.694 182.324 310.861 182.117 310.617 181.456C310.582 181.362 310.556 181.196 310.504 180.866L305.35 148.008L304.124 143.838C302.651 138.832 299.604 134.37 295.501 131.146C293.364 129.467 292.089 126.878 292.089 124.16C292.089 121.526 294.224 119.391 296.857 119.391H297.793C299.013 119.391 299.8 118.101 299.242 117.016L289.064 97.2255C288.909 96.9231 288.831 96.7714 288.75 96.6565C288.199 95.8783 287.176 95.5967 286.305 95.9836C286.176 96.0408 286.032 96.131 285.743 96.3113L281.861 98.7377L281.859 98.7388C281.119 99.2014 280.749 99.4329 280.391 99.6752C278.051 101.257 276.01 103.24 274.36 105.531C274.107 105.882 273.864 106.247 273.379 106.974L273.009 107.53C272.538 108.236 272.303 108.589 272.083 108.946C270.648 111.279 269.641 113.85 269.109 116.537C269.028 116.949 268.961 117.368 268.827 118.205L267.401 127.118C267.305 127.717 266.455 127.749 266.314 127.16L264.429 119.305C263.349 114.806 263.594 110.09 265.134 105.727C266.335 102.324 268.344 99.2638 270.988 96.8086L274.375 93.6633C275.593 92.5322 275.467 90.5684 274.114 89.6023L272.962 88.7795C269.022 85.9646 264.455 84.1516 259.656 83.4973C254.332 82.7713 248.922 82.9963 243.677 84.1619L235.506 85.9777C233.759 86.366 232.256 87.4735 231.368 89.0277C230.476 90.5879 230.27 92.4476 230.799 94.1651L232.145 98.5398C232.366 99.2592 231.593 99.8783 230.939 99.5049L228.925 98.354C225.256 96.257 222.991 92.3545 222.991 88.128C222.991 85.9645 221.588 84.0506 219.525 83.3991L213.399 81.4646C210.957 80.6933 208.457 80.1186 205.923 79.746L203.841 79.4398C192.038 77.7042 180.023 78.0579 168.343 80.4849L137.109 86.975C136.434 87.1152 136.097 87.1854 135.798 87.2809C133.811 87.9162 132.296 89.5383 131.798 91.5645C131.723 91.8692 131.676 92.211 131.583 92.8936L128.944 112.115C128.781 113.308 128.699 113.905 128.651 114.021C128.3 114.885 127.063 114.84 126.774 113.954C126.735 113.835 126.696 113.234 126.618 112.032L125.43 93.8165C125.411 93.5268 125.402 93.3816 125.378 93.2902C125.212 92.6506 124.483 92.3447 123.91 92.6747C123.828 92.7219 123.718 92.8168 123.498 93.0064L120.219 95.8338C118.042 97.7107 116.953 98.6491 115.948 99.6228C109.365 106.003 104.747 114.135 102.639 123.057C102.318 124.419 102.069 125.834 101.573 128.666L98.0568 148.706L94.567 181.509V211.501C94.567 211.912 94.567 212.118 94.5445 212.222C94.3843 212.966 93.4857 213.265 92.9114 212.766C92.8309 212.697 92.7076 212.532 92.461 212.203L79.9099 195.469M319.309 172.436L325.269 144.622L325.27 144.618C325.62 142.985 325.795 142.168 325.955 141.35C326.998 136.016 327.572 130.601 327.669 125.167C327.684 124.332 327.684 123.496 327.684 121.823V112.523C327.684 111.413 327.684 110.858 327.647 110.327C327.398 106.834 325.935 103.538 323.512 101.01C323.143 100.626 322.732 100.253 321.909 99.5089L317.888 95.8712C317.207 95.2545 316.866 94.9462 316.578 94.6315C314.673 92.5479 313.856 89.6908 314.372 86.9149C314.449 86.4957 314.576 86.0538 314.828 85.17L316.048 80.8994L316.049 80.8977C316.217 80.3104 316.301 80.0165 316.37 79.7239C316.822 77.8097 316.834 75.8177 316.405 73.8982C316.339 73.6045 316.259 73.3093 316.098 72.7189L314.232 65.8777C314.06 65.2459 313.973 64.93 313.871 64.63C313.197 62.6616 311.927 60.9522 310.236 59.7401C309.978 59.5554 309.7 59.3814 309.145 59.0346L301.86 54.4814L278.378 37.7085L278.377 37.7079C277.537 37.1076 277.116 36.8073 276.689 36.5302C273.9 34.7188 270.752 33.5338 267.461 33.0569C266.957 32.9839 266.443 32.9325 265.414 32.8296L256.034 31.8916C253.127 31.6009 250.336 30.6015 247.905 28.981C244.8 26.9105 241.469 25.1993 237.977 23.8802L220.617 17.3219C219.344 16.8411 218.707 16.6005 218.068 16.3813C213.901 14.9517 209.544 14.156 205.14 14.0207C204.465 14 203.785 14 202.424 14H191.976C189.899 14 188.861 14 187.831 14.0337C181.117 14.2532 174.481 15.5453 168.175 17.861C167.208 18.2159 166.245 18.6057 164.32 19.3848L148.31 25.8653L118.995 41.9182L107.118 48.905C99.2587 53.5281 92.1222 59.282 85.9375 65.9821C81.0594 71.2667 74.9872 75.3067 68.2283 77.7645L65.6126 78.7157C64.5529 79.101 64.0231 79.2936 63.9198 79.3639C63.1542 79.8848 63.4467 81.0767 64.3664 81.184C64.4905 81.1985 65.0499 81.1239 66.167 80.9749L73.9262 79.9404C74.2575 79.8962 74.4232 79.8741 74.5619 79.8749C75.5109 79.8806 76.3253 80.5524 76.5113 81.483C76.5384 81.619 76.5483 81.7858 76.5679 82.1195C76.6466 83.4571 76.6859 84.1266 76.6957 84.7864C76.7601 89.1473 75.8728 93.4698 74.0958 97.4528C73.8269 98.0555 73.5272 98.6549 72.9278 99.8537L69.7948 106.12C69.1407 107.428 68.8136 108.082 68.5235 108.739C66.6264 113.036 65.7648 117.718 66.0079 122.409C66.0451 123.126 66.1179 123.854 66.2634 125.309L68.0447 143.122L79.9099 195.469M79.9099 195.469L74.4444 191.955C74.2189 191.81 74.1061 191.738 74.0034 191.677C71.7233 190.336 68.8341 190.647 66.8909 192.441C66.8034 192.522 66.7082 192.617 66.5189 192.807C66.3746 192.951 66.3024 193.023 66.2349 193.094C64.7675 194.635 63.9745 196.697 64.0314 198.825C64.034 198.922 64.0393 199.025 64.0497 199.228L65.2528 222.689L68.0559 237.905C68.3579 239.545 68.5089 240.364 68.6778 241.177C69.7787 246.474 71.4649 251.632 73.7055 256.556C74.0493 257.312 74.412 258.063 75.1365 259.564L76.1402 261.643C76.4011 262.184 76.532 262.455 76.665 262.707C78.8425 266.835 82.7139 269.806 87.2646 270.842C87.5427 270.906 87.8377 270.962 88.4278 271.074C88.8595 271.157 89.0753 271.198 89.2877 271.233C92.7311 271.809 96.2664 271.424 99.5056 270.122C99.7054 270.042 99.9074 269.955 100.311 269.782L102.648 268.78C102.881 268.68 102.998 268.631 103.106 268.598C103.831 268.38 104.616 268.59 105.136 269.14C105.213 269.223 105.29 269.324 105.442 269.527L114.808 282.015M77.816 388.802L15 418.117M307.444 385.313L351.415 402.064L386.313 414.627M170.838 152.337H160.99C159.992 152.337 159.493 152.337 158.994 152.345C155.75 152.394 152.514 152.682 149.313 153.207C148.821 153.287 148.33 153.376 147.348 153.552L137.469 155.325C135.971 155.594 135.221 155.728 134.523 155.912C129.921 157.126 125.987 160.112 123.581 164.219C123.216 164.842 122.885 165.527 122.224 166.898L119.509 172.522C119.322 172.909 119.228 173.102 119.206 173.178C118.939 174.063 119.915 174.805 120.697 174.312C120.764 174.27 120.925 174.128 121.248 173.845C122.449 172.791 123.05 172.263 123.656 171.769C129.917 166.658 137.465 163.37 145.472 162.266C146.246 162.16 147.086 162.074 148.767 161.903C149.398 161.839 149.713 161.807 150.013 161.779C152.745 161.53 155.49 161.479 158.229 161.625C158.53 161.641 158.831 161.661 159.433 161.699L183.174 163.22C183.458 163.238 183.599 163.247 183.69 163.245C185.195 163.204 186.117 161.579 185.38 160.267C185.336 160.187 185.256 160.071 185.095 159.837C184.718 159.288 184.529 159.013 184.34 158.761C181.452 154.895 176.974 152.54 172.152 152.35C171.837 152.337 171.504 152.337 170.838 152.337ZM244.507 149.535L252.196 148.912C253.56 148.801 254.242 148.746 254.922 148.706C259.357 148.441 263.808 148.639 268.202 149.296C268.876 149.397 269.55 149.513 270.899 149.744L275.519 150.536C277.008 150.791 277.753 150.919 278.448 151.096C283.03 152.263 286.968 155.186 289.412 159.233C289.783 159.847 290.121 160.523 290.797 161.875L292.673 165.627C292.873 166.027 292.973 166.228 293 166.333C293.191 167.091 292.478 167.765 291.732 167.532C291.628 167.499 291.434 167.388 291.045 167.166L280.064 160.879C279.553 160.587 279.298 160.441 279.04 160.306C277.359 159.423 275.534 158.846 273.65 158.603C273.362 158.566 273.069 158.539 272.483 158.485L267.003 157.979C265.814 157.869 265.22 157.815 264.626 157.772C260.759 157.494 256.874 157.597 253.027 158.081C252.437 158.155 251.846 158.242 250.665 158.415L233.877 160.871C232.323 161.099 231.155 159.484 231.858 158.079C234.29 153.215 239.087 149.975 244.507 149.535Z" stroke="white" stroke-width="4"/>
</g>
<defs>
<filter id="filter0_dddddddd" x="0.154236" y="0" width="400.836" height="541.165" filterUnits="userSpaceOnUse" color-interpolation-filters="sRGB">
<feFlood flood-opacity="0" result="BackgroundImageFix"/>
<feColorMatrix in="SourceAlpha" type="matrix" values="0 0 0 0 0 0 0 0 0 0 0 0 0 0 0 0 0 0 127 0"/>
<feOffset dy="12"/>
<feGaussianBlur stdDeviation="7"/>
<feColorMatrix type="matrix" values="0 0 0 0 0.196078 0 0 0 0 0.196078 0 0 0 0 0.196078 0 0 0 0.2 0"/>
<feBlend mode="normal" in2="BackgroundImageFix" result="effect1_dropShadow"/>
<feColorMatrix in="SourceAlpha" type="matrix" values="0 0 0 0 0 0 0 0 0 0 0 0 0 0 0 0 0 0 127 0"/>
<feOffset dy="4"/>
<feGaussianBlur stdDeviation="2"/>
<feColorMatrix type="matrix" values="0 0 0 0 0 0 0 0 0 0 0 0 0 0 0 0 0 0 0.05 0"/>
<feBlend mode="normal" in2="effect1_dropShadow" result="effect2_dropShadow"/>
<feColorMatrix in="SourceAlpha" type="matrix" values="0 0 0 0 0 0 0 0 0 0 0 0 0 0 0 0 0 0 127 0"/>
<feOffset/>
<feGaussianBlur stdDeviation="1"/>
<feColorMatrix type="matrix" values="0 0 0 0 1 0 0 0 0 1 0 0 0 0 1 0 0 0 1 0"/>
<feBlend mode="normal" in2="effect2_dropShadow" result="effect3_dropShadow"/>
<feColorMatrix in="SourceAlpha" type="matrix" values="0 0 0 0 0 0 0 0 0 0 0 0 0 0 0 0 0 0 127 0"/>
<feOffset/>
<feGaussianBlur stdDeviation="2"/>
<feColorMatrix type="matrix" values="0 0 0 0 1 0 0 0 0 1 0 0 0 0 1 0 0 0 0.9 0"/>
<feBlend mode="normal" in2="effect3_dropShadow" result="effect4_dropShadow"/>
<feColorMatrix in="SourceAlpha" type="matrix" values="0 0 0 0 0 0 0 0 0 0 0 0 0 0 0 0 0 0 127 0"/>
<feOffset/>
<feGaussianBlur stdDeviation="3"/>
<feColorMatrix type="matrix" values="0 0 0 0 1 0 0 0 0 1 0 0 0 0 1 0 0 0 0.8 0"/>
<feBlend mode="normal" in2="effect4_dropShadow" result="effect5_dropShadow"/>
<feColorMatrix in="SourceAlpha" type="matrix" values="0 0 0 0 0 0 0 0 0 0 0 0 0 0 0 0 0 0 127 0"/>
<feOffset/>
<feGaussianBlur stdDeviation="4"/>
<feColorMatrix type="matrix" values="0 0 0 0 0.321569 0 0 0 0 0.588235 0 0 0 0 0.941176 0 0 0 0.6 0"/>
<feBlend mode="normal" in2="effect5_dropShadow" result="effect6_dropShadow"/>
<feColorMatrix in="SourceAlpha" type="matrix" values="0 0 0 0 0 0 0 0 0 0 0 0 0 0 0 0 0 0 127 0"/>
<feOffset/>
<feGaussianBlur stdDeviation="5"/>
<feColorMatrix type="matrix" values="0 0 0 0 0.321569 0 0 0 0 0.588235 0 0 0 0 0.941176 0 0 0 0.5 0"/>
<feBlend mode="normal" in2="effect6_dropShadow" result="effect7_dropShadow"/>
<feColorMatrix in="SourceAlpha" type="matrix" values="0 0 0 0 0 0 0 0 0 0 0 0 0 0 0 0 0 0 127 0"/>
<feOffset/>
<feGaussianBlur stdDeviation="6"/>
<feColorMatrix type="matrix" values="0 0 0 0 0.321569 0 0 0 0 0.588235 0 0 0 0 0.941176 0 0 0 0.4 0"/>
<feBlend mode="normal" in2="effect7_dropShadow" result="effect8_dropShadow"/>
<feBlend mode="normal" in="SourceGraphic" in2="effect8_dropShadow" result="shape"/>
</filter>
</defs>
</svg>
